<svg width="32" height="32" viewBox="0 0 32 32" xmlns="http://www.w3.org/2000/svg">
  <!-- Background circle -->
  <circle cx="16" cy="16" r="16" fill="#2563eb"/>
  
  <!-- Quiz/Question mark symbol -->
  <path d="M16 6c-3.5 0-6.5 2.5-6.5 6h2.5c0-2.2 1.8-4 4-4s4 1.8 4 4c0 1.5-0.8 2.8-2 3.5l-1 0.5v2h2.5v-1.2c2.2-1.1 3.5-3.4 3.5-5.8 0-3.5-3-6-6.5-6z" fill="white"/>
  <circle cx="16" cy="24" r="1.5" fill="white"/>
  
  <!-- Small education/graduation cap accent -->
  <path d="M8 10l8-3 8 3v1l-8 3-8-3v-1z" fill="#fbbf24" opacity="0.8"/>
  <rect x="22" y="10" width="1" height="4" fill="#fbbf24" opacity="0.8"/>
  <circle cx="22.5" cy="14.5" r="0.5" fill="#fbbf24"/>
</svg>